<mxfile host="app.diagrams.net" modified="2024-01-31T16:54:36.702Z" agent="Mozilla/5.0 (Windows NT 10.0; Win64; x64; rv:109.0) Gecko/20100101 Firefox/115.0" version="23.0.2" etag="lfm2iL43THKynbhxlKqP" type="github">
  <diagram name="Page-1" id="R1S9r6APVr34EcUZnX9l">
    <mxGraphModel>
      <root>
        <mxCell id="0" />
        <mxCell id="1" parent="0" />
      </root>
    </mxGraphModel>
  </diagram>
</mxfile>
